{"glyphs":{"0":{"ha":828,"x_min":42,"x_max":786,"o":"m 143 839 q 414 967 244 967 q 561 938 493 967 q 567 933 564 929 q 486 760 526 840 q 479 764 483 754 q 414 778 450 778 q 281 704 331 778 q 231 513 231 631 q 279 322 231 394 q 281 318 281 314 q 196 132 238 218 q 189 138 192 128 q 81 295 119 199 q 42 513 42 392 q 143 839 42 713 m 622 914 q 743 754 700 856 q 786 526 786 653 q 685 200 786 326 q 414 72 583 72 q 250 113 325 72 q 243 115 247 121 q 325 289 285 210 q 332 285 328 294 q 414 261 368 261 q 546 335 496 261 q 596 526 596 408 q 535 735 596 660 q 532 738 533 743 q 615 919 574 836 q 622 914 618 924 z "},"1":{"ha":369,"x_min":42,"x_max":328,"o":"m 318 967 q 328 969 324 961 q 328 517 328 736 q 140 461 233 482 q 140 710 140 579 q 42 681 92 689 q 42 878 42 772 q 268 950 156 907 l 269 950 q 318 967 294 950 m 140 442 q 328 497 233 476 q 328 72 328 292 l 140 72 q 140 442 140 264 z "},"2":{"ha":775,"x_min":42,"x_max":731,"o":"m 79 671 q 172 881 79 793 q 399 967 267 967 q 626 871 532 967 q 718 650 718 775 q 707 575 718 615 q 392 429 551 496 q 414 454 403 435 q 525 640 525 576 q 487 737 525 697 q 406 776 449 776 q 299 733 344 776 q 254 631 254 690 q 254 622 254 619 q 79 665 167 636 q 79 671 79 661 m 456 263 l 731 263 q 731 72 731 175 l 42 72 q 42 79 42 83 q 42 111 42 103 q 42 114 42 119 q 325 376 224 279 q 693 547 511 468 q 685 529 689 544 q 585 381 647 451 q 456 263 521 310 z "},"3":{"ha":694,"x_min":42,"x_max":656,"o":"m 174 908 q 346 967 247 967 q 492 929 425 967 q 586 829 554 893 q 589 824 588 819 q 418 731 506 769 q 415 738 417 728 q 388 771 407 758 q 344 783 369 783 q 301 769 319 783 q 276 729 282 754 q 275 722 276 719 q 82 761 176 735 q 83 768 83 758 q 174 908 104 851 m 600 801 q 610 733 610 764 q 585 631 610 675 q 524 565 560 588 q 614 483 576 538 q 654 343 654 424 q 647 279 654 315 l 461 385 l 460 388 q 383 472 444 439 q 236 504 321 504 l 226 504 l 258 617 l 264 617 q 363 639 322 617 q 417 697 404 661 l 417 699 l 600 801 m 528 121 q 351 71 451 71 q 153 133 240 71 q 43 289 67 197 q 42 296 43 299 q 225 342 133 325 q 228 335 226 346 q 270 278 236 300 q 349 256 304 256 q 424 280 393 256 q 463 343 456 304 q 464 353 464 354 q 636 256 551 311 q 635 250 636 260 q 528 121 603 171 z "},"4":{"ha":839,"x_min":42,"x_max":801,"o":"m 275 318 l 247 257 l 42 257 l 357 967 q 568 965 463 958 q 275 318 283 336 m 515 449 l 515 696 l 711 696 l 711 449 l 801 449 l 801 257 l 711 257 l 711 72 l 515 72 l 515 257 l 310 257 l 313 267 l 322 288 l 322 288 q 392 444 392 440 l 394 449 l 515 449 z "},"5":{"ha":747,"x_min":42,"x_max":711,"o":"m 74 501 l 143 967 l 711 967 q 624 775 667 864 l 292 775 l 275 681 q 385 704 317 704 q 567 657 489 704 l 576 653 l 396 515 q 357 518 375 518 q 261 501 308 518 q 186 450 214 483 l 182 446 l 74 501 m 624 619 q 706 399 706 532 q 610 160 706 251 q 365 68 513 68 q 169 121 257 68 q 44 260 85 174 q 42 267 43 269 q 233 328 138 304 q 236 324 235 332 q 357 260 279 260 q 458 294 413 260 q 504 399 504 329 q 463 493 504 460 q 456 499 460 503 q 618 625 539 568 q 624 619 621 629 z "},"6":{"ha":731,"x_min":40,"x_max":688,"o":"m 256 454 q 233 385 233 422 q 272 299 233 335 q 365 263 310 263 q 458 300 419 263 q 497 388 497 338 q 458 476 497 439 q 365 514 419 514 l 364 514 q 351 514 358 521 q 438 661 394 594 q 442 661 439 668 q 615 573 543 651 q 688 383 688 494 q 594 164 688 256 q 360 72 500 72 q 131 153 219 72 q 40 369 40 235 q 74 498 40 426 q 261 846 108 569 q 332 967 297 900 q 556 965 444 958 q 464 807 499 864 q 395 693 429 750 q 336 590 361 636 q 281 497 293 517 q 256 454 279 493 z "},"7":{"ha":806,"x_min":44,"x_max":771,"o":"m 44 778 q 117 967 81 865 l 485 967 q 413 778 449 865 l 44 778 m 196 72 q 556 967 374 533 l 771 967 q 767 957 768 956 q 753 925 760 935 q 583 500 753 925 q 400 72 485 290 q 196 72 297 79 z "},"8":{"ha":706,"x_min":42,"x_max":664,"o":"m 163 897 q 353 967 238 967 q 543 899 468 967 q 618 739 618 831 q 581 628 618 675 q 521 575 551 590 q 576 539 543 565 l 436 444 l 432 447 q 354 474 397 474 q 267 440 303 474 q 231 360 231 407 q 240 314 231 339 l 82 206 l 79 213 q 42 350 42 276 q 97 508 42 444 q 186 576 142 560 q 124 629 151 592 q 89 738 89 676 q 163 897 89 829 m 436 726 q 436 742 436 726 q 413 776 436 758 q 354 793 389 793 q 296 776 319 793 q 272 727 272 758 q 296 678 272 696 q 353 660 319 660 q 412 676 388 660 q 436 726 436 693 m 618 501 q 664 356 664 438 q 578 156 664 239 q 350 72 492 72 q 121 164 208 72 q 115 169 118 174 q 276 279 194 231 q 281 276 279 285 q 351 258 313 258 q 440 290 404 258 q 475 367 475 321 q 468 407 475 385 q 614 507 542 464 q 618 501 617 511 z "},"9":{"ha":731,"x_min":40,"x_max":688,"o":"m 472 585 q 494 654 494 617 q 456 740 494 704 q 363 776 418 776 q 269 739 308 776 q 231 650 231 701 q 269 562 231 599 q 363 525 308 525 l 364 525 q 376 525 369 518 q 290 378 333 444 q 286 378 289 371 q 113 466 185 388 q 40 656 40 544 q 133 875 40 783 q 368 965 228 965 q 597 885 508 965 q 688 669 688 804 q 653 541 688 613 q 467 193 619 469 l 397 76 q 396 72 397 81 q 172 74 283 81 q 264 232 229 175 q 332 346 299 289 l 367 403 q 392 449 367 403 q 447 542 435 522 q 472 585 449 546 z "},"\"":{"ha":506,"x_min":46,"x_max":414,"o":"m 46 0 l 46 925 l 414 925 l 414 0 l 46 0 m 92 46 l 368 46 l 368 879 l 92 879 l 92 46 z "},"%":{"ha":506,"x_min":46,"x_max":414,"o":"m 46 0 l 46 925 l 414 925 l 414 0 l 46 0 m 92 46 l 368 46 l 368 879 l 92 879 l 92 46 z "},"'":{"ha":506,"x_min":46,"x_max":414,"o":"m 46 0 l 46 925 l 414 925 l 414 0 l 46 0 m 92 46 l 368 46 l 368 879 l 92 879 l 92 46 z "},",":{"ha":506,"x_min":46,"x_max":414,"o":"m 46 0 l 46 925 l 414 925 l 414 0 l 46 0 m 92 46 l 368 46 l 368 879 l 92 879 l 92 46 z "},"!":{"ha":306,"x_min":40,"x_max":265,"o":"m 51 967 l 253 967 l 251 961 l 79 401 l 51 967 m 243 776 l 225 399 l 128 399 l 243 776 m 151 292 q 231 259 199 292 q 264 181 264 226 q 231 103 264 135 q 153 72 199 72 q 74 104 107 72 q 42 183 42 136 q 74 260 42 228 q 151 292 107 292 z "},"#":{"ha":874,"x_min":43,"x_max":829,"o":"m 267 967 l 411 967 l 385 774 l 240 774 l 267 967 m 590 967 l 735 967 l 704 728 l 829 728 l 813 593 l 686 593 l 663 414 l 789 414 l 771 279 l 644 279 l 618 72 l 475 72 l 518 414 l 542 593 l 361 593 l 338 414 l 472 414 l 456 279 l 319 279 l 293 72 l 149 72 l 176 279 l 43 279 l 60 414 l 193 414 l 218 593 l 83 593 l 101 726 l 494 728 l 560 728 l 590 967 z "},"$":{"ha":583,"x_min":42,"x_max":542,"o":"m 542 364 q 492 233 542 286 q 360 163 443 179 l 360 72 l 242 72 l 242 158 q 42 290 104 175 l 154 369 q 290 297 199 297 q 369 315 339 297 q 400 361 400 333 q 394 385 400 374 q 375 410 389 397 q 350 431 361 422 q 315 452 339 439 q 281 471 292 465 q 243 489 271 476 q 194 515 211 506 q 152 542 178 524 q 113 578 126 560 q 89 623 100 596 q 78 682 78 650 q 124 807 78 756 q 242 875 169 858 l 242 967 l 360 967 l 360 879 q 515 760 478 860 l 411 688 q 311 746 382 746 q 246 726 272 746 q 219 679 219 707 q 222 663 219 671 q 232 649 225 656 q 247 637 239 642 q 267 625 254 632 q 291 613 281 618 q 320 600 301 608 q 353 586 339 592 q 494 490 447 540 q 542 364 542 440 z "},"&":{"ha":822,"x_min":36,"x_max":786,"o":"m 36 331 q 76 469 36 401 q 165 571 115 536 q 114 732 114 664 q 186 891 114 819 q 357 963 258 963 q 510 905 443 963 q 593 768 576 847 l 594 761 l 419 726 l 418 733 q 392 776 413 758 q 351 793 372 793 q 312 774 329 793 q 294 726 294 756 q 358 578 294 668 q 510 406 421 488 q 526 518 524 453 l 697 519 q 656 293 694 390 q 779 247 732 247 l 786 247 l 785 76 l 778 76 q 567 157 692 76 q 331 65 472 65 q 201 90 260 65 q 108 155 143 115 q 55 240 74 194 q 36 331 36 286 m 210 345 q 210 320 210 345 q 238 270 210 296 q 322 244 267 244 q 417 269 376 244 q 257 436 328 347 q 210 345 210 394 z "},"(":{"ha":361,"x_min":36,"x_max":331,"o":"m 167 974 l 331 974 l 324 963 q 253 807 285 900 l 247 790 l 167 974 m 133 911 l 224 708 q 199 519 199 601 q 224 331 199 438 l 133 128 l 126 139 q 36 519 36 306 q 126 899 36 733 l 133 911 m 331 65 l 167 65 l 247 247 l 253 231 q 324 75 285 139 l 331 65 z "},")":{"ha":353,"x_min":26,"x_max":322,"o":"m 28 969 l 192 969 l 110 788 l 104 804 q 33 960 72 896 l 28 969 m 231 896 q 321 515 321 729 q 231 136 321 301 l 224 124 l 133 328 q 158 516 158 435 q 133 704 158 597 l 224 908 l 231 896 m 192 61 l 28 61 l 33 72 q 104 228 72 136 l 110 244 l 192 61 z "},"*":{"ha":308,"x_min":29,"x_max":276,"o":"m 119 974 l 186 974 l 194 974 l 193 965 l 183 904 l 226 940 l 232 946 l 236 939 l 271 888 l 276 881 l 204 850 l 268 824 l 276 821 l 271 814 l 236 763 l 232 756 l 226 761 l 183 797 l 193 736 l 194 728 l 186 728 l 119 728 l 111 728 l 113 736 l 122 797 l 79 761 l 74 756 l 69 763 l 35 814 l 29 821 l 101 851 l 38 878 l 29 881 l 35 888 l 69 939 l 74 946 l 79 940 l 122 904 l 113 965 l 111 974 l 119 974 z "},"+":{"ha":444,"x_min":33,"x_max":411,"o":"m 150 742 l 299 742 l 161 482 l 35 482 l 35 625 l 150 625 l 150 742 m 299 625 l 410 625 l 410 482 l 294 482 l 294 367 l 161 367 l 299 625 z "},"-":{"ha":447,"x_min":33,"x_max":411,"o":"m 35 592 l 243 592 l 179 447 l 35 447 l 35 592 m 304 592 l 410 592 l 410 447 l 240 447 l 304 592 z "},"/":{"ha":600,"x_min":28,"x_max":568,"o":"m 415 972 l 567 972 l 406 511 l 400 511 l 338 511 l 181 64 l 29 64 l 190 525 l 196 525 l 258 525 l 415 972 z "},"<":{"ha":382,"x_min":36,"x_max":349,"o":"m 347 739 l 347 579 q 133 413 231 489 l 36 486 l 36 490 l 36 500 l 36 503 l 347 739 m 347 410 l 347 249 l 194 365 l 299 447 l 303 443 l 344 411 l 347 410 z "},"=":{"ha":447,"x_min":33,"x_max":411,"o":"m 35 742 l 140 742 l 204 599 l 35 599 l 35 742 m 201 742 l 410 742 l 410 599 l 265 599 l 201 742 m 35 514 l 210 514 l 146 371 l 35 371 l 35 514 m 269 514 l 410 514 l 410 371 l 206 371 l 269 514 z "},">":{"ha":386,"x_min":32,"x_max":346,"o":"m 344 510 l 344 499 l 344 496 l 249 422 l 33 589 l 33 749 l 344 513 l 344 510 m 33 258 l 33 418 l 36 421 l 78 453 l 82 456 l 186 375 l 33 258 z "},"?":{"ha":556,"x_min":35,"x_max":519,"o":"m 258 974 q 293 972 271 974 l 214 794 l 211 793 q 110 717 135 776 l 103 701 l 36 851 l 38 854 q 258 974 101 974 m 354 957 q 474 869 428 929 q 519 746 519 808 q 503 640 519 683 q 449 558 486 597 q 397 518 432 542 q 348 472 363 494 q 333 411 333 450 q 336 381 333 396 l 163 379 l 163 386 l 163 401 q 199 524 163 471 q 314 638 235 578 q 353 711 353 667 q 283 793 353 779 l 275 796 l 349 958 l 354 957 m 136 179 q 136 203 136 179 q 169 259 136 226 q 249 292 203 292 q 330 258 296 292 q 364 177 364 224 q 331 98 364 131 q 250 65 297 65 q 169 99 203 65 q 136 179 136 132 z "},"@":{"ha":978,"x_min":33,"x_max":944,"o":"m 550 972 q 765 918 674 972 q 900 780 857 864 q 943 594 943 696 q 910 427 943 506 q 813 297 876 349 q 668 246 749 246 q 568 286 603 246 q 538 368 543 318 q 510 343 528 354 q 429 322 474 322 q 331 367 368 322 q 293 482 293 411 q 344 640 293 572 q 475 707 396 707 l 476 707 q 543 688 515 707 q 567 658 560 675 l 583 699 l 586 703 l 690 703 l 657 438 q 656 415 656 422 q 692 358 656 358 q 747 393 722 358 q 782 476 771 428 q 793 572 793 524 q 719 763 793 699 q 533 828 644 828 q 281 724 382 828 q 179 474 179 621 q 256 281 179 356 q 467 206 332 206 q 553 222 513 206 l 560 225 l 597 97 q 454 69 522 69 q 261 102 344 69 q 129 192 178 135 q 35 458 35 303 q 103 717 35 599 q 290 903 171 835 q 550 972 410 972 m 492 588 q 435 562 458 588 q 413 503 413 536 q 429 459 413 476 q 471 442 446 442 q 523 468 501 442 q 544 529 544 494 q 531 571 544 554 q 492 588 518 588 z "},"A":{"ha":958,"x_min":40,"x_max":915,"o":"m 471 967 l 475 967 l 481 967 q 485 967 483 960 l 915 67 l 708 67 l 651 189 l 340 189 l 415 351 l 575 351 l 379 778 q 471 967 425 867 m 247 71 l 246 67 l 40 67 l 360 743 l 460 524 l 389 371 l 388 371 q 267 110 274 124 q 247 71 247 71 z "},"B":{"ha":728,"x_min":42,"x_max":699,"o":"m 53 646 q 53 967 53 800 l 304 967 q 508 894 429 967 q 583 726 583 822 q 551 615 583 661 q 519 579 533 590 q 632 515 579 569 q 697 344 697 449 q 666 213 697 275 q 568 108 635 151 q 406 67 500 67 l 53 67 l 53 569 l 247 401 l 247 256 l 389 256 q 471 283 435 256 q 507 354 507 311 q 478 425 507 397 q 389 453 449 453 l 238 453 l 42 625 l 313 625 q 369 647 344 625 q 394 702 394 669 q 371 756 394 735 q 317 778 347 778 l 246 778 q 246 646 246 706 l 53 646 z "},"C":{"ha":861,"x_min":42,"x_max":1131,"o":"m 706 686 q 503 776 611 776 q 447 772 476 776 q 326 931 386 844 q 335 935 331 925 q 504 967 418 967 q 814 832 678 964 q 819 828 817 822 q 711 681 765 747 q 706 686 708 676 m 394 760 q 278 663 324 728 q 232 520 232 597 q 278 378 232 443 q 394 282 324 313 l 403 278 l 285 121 l 279 125 q 106 291 171 185 q 42 520 42 397 q 106 749 42 643 q 279 915 171 856 l 285 919 l 403 764 l 394 760 m 447 264 q 503 257 478 257 q 706 347 611 257 l 711 353 l 819 206 l 814 201 q 504 67 678 69 q 335 99 418 67 l 326 103 l 447 264 m 1131 500 z "},"D":{"ha":835,"x_min":40,"x_max":807,"o":"m 44 967 l 325 967 q 329 967 326 960 q 681 846 553 967 q 807 513 807 724 q 681 181 807 301 q 325 60 551 60 q 40 60 181 53 q 299 253 168 150 l 301 253 l 326 253 q 522 311 449 253 q 608 474 596 369 q 610 513 610 486 q 534 706 610 636 q 325 775 458 775 l 304 775 q 301 775 303 768 q 44 967 172 864 m 54 926 l 249 781 l 249 264 l 54 118 l 54 926 z "},"E":{"ha":650,"x_min":39,"x_max":606,"o":"m 104 82 l 288 258 l 606 258 l 606 67 l 46 67 l 39 60 l 39 67 l 39 74 l 39 75 l 39 82 l 39 976 q 233 790 136 878 l 233 622 l 554 622 l 554 429 l 233 429 l 233 249 l 61 82 l 104 82 m 290 776 q 90 967 188 864 q 606 967 350 960 q 606 776 606 864 l 290 776 z "},"F":{"ha":758,"x_min":57,"x_max":726,"o":"m 110 82 l 118 82 l 110 82 m 292 776 q 94 967 192 864 l 725 967 q 529 776 628 864 l 292 776 m 222 79 l 222 443 l 360 443 l 535 608 l 222 608 l 222 788 l 57 950 l 57 83 l 110 82 l 111 82 l 118 82 l 118 82 l 222 79 z "},"G":{"ha":975,"x_min":43,"x_max":932,"o":"m 711 686 q 706 692 708 682 q 501 778 606 778 q 314 701 396 778 q 232 513 232 625 q 267 381 232 440 q 363 286 301 322 q 369 283 367 278 q 263 126 317 197 q 257 131 260 121 q 101 292 158 190 q 43 514 43 393 q 103 740 43 635 q 271 906 164 844 q 503 967 378 967 q 666 933 585 965 q 811 846 747 901 q 817 842 814 836 q 711 686 764 757 m 497 407 l 615 579 l 926 579 q 932 500 932 533 q 875 267 932 368 q 724 117 818 167 q 508 67 628 67 q 306 110 401 67 l 297 114 l 407 274 q 518 254 461 254 q 667 297 611 254 q 731 407 724 339 l 497 407 z "},"H":{"ha":796,"x_min":43,"x_max":749,"o":"m 43 600 q 43 967 43 776 l 236 967 q 236 600 236 776 q 140 532 189 560 q 43 600 92 560 m 556 967 l 749 967 q 749 600 749 776 q 651 532 700 560 q 556 600 603 560 q 556 967 556 776 m 301 615 l 303 617 l 489 617 l 490 615 l 517 597 l 626 521 l 515 444 l 489 426 l 486 425 l 306 425 l 303 426 l 276 444 l 165 521 l 275 597 l 301 615 m 54 479 l 43 471 l 43 571 l 54 563 l 106 526 l 114 521 l 106 515 l 54 479 m 738 563 l 749 571 l 749 471 l 738 479 l 686 515 l 678 521 l 686 526 l 738 563 m 140 503 l 236 435 l 236 65 l 43 65 l 43 435 l 140 503 m 651 503 l 749 435 l 749 65 l 556 65 l 556 435 l 651 503 z "},"I":{"ha":275,"x_min":42,"x_max":271,"o":"m 139 501 l 236 433 l 236 65 l 42 65 l 42 433 l 139 501 m 225 561 l 236 569 l 236 469 l 225 478 l 174 514 l 165 519 l 174 525 l 225 561 m 53 478 l 42 469 l 42 569 l 53 561 l 104 525 l 113 519 l 104 514 l 53 478 m 271 953 l 236 953 q 236 599 236 769 q 139 531 188 558 q 42 599 90 558 q 42 967 42 776 l 229 967 l 236 967 l 271 967 l 271 953 z "},"J":{"ha":663,"x_min":39,"x_max":622,"o":"m 431 699 q 429 967 429 826 l 619 967 q 619 832 619 893 q 431 699 525 758 m 518 168 q 254 65 411 65 l 247 65 q 44 126 133 65 l 39 131 l 136 297 l 143 292 q 249 254 188 254 l 253 254 q 378 305 325 254 q 431 424 431 356 q 431 667 431 424 l 431 671 l 619 803 l 622 422 q 518 168 622 272 z "},"K":{"ha":783,"x_min":42,"x_max":746,"o":"m 42 711 q 42 967 42 832 l 235 967 q 235 771 235 861 q 296 686 265 721 q 489 967 393 819 q 713 967 601 960 q 418 522 568 738 q 746 58 583 283 q 510 58 628 51 q 372 247 442 146 q 78 658 79 658 q 69 669 74 657 l 71 669 q 43 710 57 683 q 42 711 42 704 m 157 468 l 235 357 l 235 65 l 42 65 l 42 633 l 157 468 z "},"L":{"ha":653,"x_min":43,"x_max":610,"o":"m 43 46 q 43 967 43 499 l 236 967 q 236 288 236 621 q 43 46 139 160 m 94 65 l 249 258 l 610 258 l 610 65 l 94 65 z "},"M":{"ha":967,"x_min":42,"x_max":925,"o":"m 74 600 q 232 369 153 478 q 232 58 232 207 l 42 58 q 42 644 42 344 q 54 626 49 628 q 64 613 58 613 q 83 643 74 621 q 43 700 43 700 q 42 701 42 694 q 42 967 42 828 l 49 967 l 58 967 l 63 967 q 483 396 271 674 q 904 967 696 674 l 908 967 l 918 967 l 925 967 q 925 701 925 828 q 885 643 904 665 q 903 613 894 621 q 913 626 908 613 q 925 644 918 628 q 925 58 925 344 l 736 58 q 736 368 736 206 q 894 600 815 476 q 876 631 885 608 q 489 72 683 344 q 485 72 486 65 l 483 72 q 479 72 482 65 q 92 631 285 344 q 74 600 83 608 z "},"N":{"ha":828,"x_min":42,"x_max":786,"o":"m 42 981 l 49 981 l 57 981 q 60 981 58 974 q 532 535 293 750 q 600 468 561 507 q 603 468 601 461 q 786 288 694 371 q 786 43 786 158 l 779 43 l 771 43 q 768 43 769 36 q 42 740 406 385 q 42 981 42 853 m 594 519 q 593 522 594 514 q 593 967 593 738 l 786 967 q 786 332 786 643 q 611 503 699 411 q 594 519 603 504 m 42 703 l 236 513 l 236 65 l 42 65 l 42 703 z "},"O":{"ha":1017,"x_min":38,"x_max":974,"o":"m 269 911 q 506 972 378 972 q 819 856 686 972 q 825 850 822 846 q 685 718 756 778 q 681 722 682 714 q 504 783 604 783 q 310 705 390 783 q 229 515 229 626 q 286 354 229 426 q 290 350 289 344 q 151 217 219 276 q 146 222 149 213 q 38 515 38 350 q 99 744 38 639 q 269 911 161 850 m 864 817 q 974 522 974 689 q 912 294 974 399 q 742 128 850 189 q 504 67 632 67 q 190 185 324 67 l 199 194 l 192 194 l 326 321 l 331 317 q 504 257 407 257 q 701 335 619 257 q 782 522 782 413 q 724 686 782 613 l 719 690 l 858 822 l 864 817 z "},"P":{"ha":739,"x_min":42,"x_max":697,"o":"m 42 793 q 42 967 42 872 l 363 967 q 603 876 507 967 q 697 661 697 788 q 603 446 697 535 q 363 356 507 356 l 235 356 l 235 65 l 42 65 l 42 733 l 231 549 l 363 547 q 460 581 419 547 q 501 662 501 615 q 460 742 501 708 q 363 775 419 775 l 235 775 q 235 604 235 683 q 42 793 139 692 z "},"Q":{"ha":1000,"x_min":42,"x_max":958,"o":"m 850 238 l 851 238 q 893 228 868 233 l 894 228 q 900 227 896 228 q 914 225 904 226 q 919 224 919 224 q 942 222 931 217 q 949 222 946 215 q 935 40 942 124 q 928 40 931 33 q 707 113 804 49 q 499 64 611 64 q 268 125 374 64 q 102 289 163 185 q 42 515 42 393 q 102 741 42 636 q 268 906 163 846 q 499 967 374 967 q 731 906 624 967 q 898 741 838 846 q 958 514 958 636 q 885 269 958 382 q 882 265 883 261 q 847 276 858 272 q 764 325 808 294 q 717 360 740 340 q 721 365 718 356 q 771 515 771 433 q 691 702 771 625 q 499 779 611 779 q 308 702 388 779 q 229 516 229 625 q 308 330 229 407 q 499 253 388 253 q 547 257 525 253 q 461 329 500 303 q 371 360 422 356 q 364 360 368 353 q 374 521 369 433 l 381 521 l 382 521 q 409 517 383 521 q 468 506 435 513 q 510 489 490 499 q 542 471 533 476 q 604 424 581 443 q 639 390 621 410 q 697 331 683 343 q 822 249 751 276 q 850 238 836 242 z "},"R":{"ha":794,"x_min":40,"x_max":761,"o":"m 233 775 q 106 967 169 864 l 340 967 q 572 881 475 967 q 665 669 665 793 q 619 514 665 582 q 500 418 572 444 q 761 58 632 231 q 519 58 642 51 q 236 465 378 254 q 236 58 236 254 l 42 58 q 40 975 42 510 q 235 686 138 824 q 235 564 235 618 l 343 564 q 347 564 346 564 q 424 594 390 564 q 458 669 458 625 q 424 744 458 713 q 343 775 389 775 l 233 775 z "},"S":{"ha":722,"x_min":38,"x_max":682,"o":"m 169 896 q 382 967 254 967 q 550 928 481 967 q 647 810 619 888 q 650 804 649 800 q 513 708 581 749 q 508 715 510 704 q 385 783 472 783 q 306 761 338 783 q 275 710 275 739 q 289 678 275 690 q 307 663 299 669 q 332 649 315 657 q 363 635 349 640 q 429 606 408 614 q 474 585 450 599 q 297 468 385 519 q 231 501 253 490 q 177 535 210 513 q 128 581 144 558 q 99 638 111 604 q 86 714 86 672 q 169 896 86 825 m 522 567 q 642 464 603 519 q 682 329 682 408 q 593 139 682 211 q 356 67 504 67 q 40 236 132 67 l 38 242 l 188 344 l 192 339 q 357 254 247 254 q 456 275 419 254 q 493 326 493 296 q 458 385 493 357 q 347 450 424 414 l 522 567 z "},"T":{"ha":733,"x_min":43,"x_max":690,"o":"m 43 775 q 43 967 43 864 q 376 967 210 960 q 181 775 279 864 l 43 775 m 250 775 q 461 967 349 864 l 690 967 q 690 775 690 864 l 471 775 q 471 58 471 410 l 263 58 q 263 775 263 410 q 250 775 256 768 z "},"U":{"ha":789,"x_min":43,"x_max":746,"o":"m 43 408 q 43 967 43 681 l 233 967 q 233 408 233 681 q 279 299 233 344 q 285 294 282 290 q 143 158 213 219 q 138 164 140 154 q 43 408 43 264 m 556 546 q 556 967 556 750 l 746 967 q 746 719 746 836 q 738 724 742 714 q 556 546 646 628 m 556 486 l 746 672 l 746 415 q 646 165 746 265 q 394 65 546 65 q 186 129 278 65 l 179 133 l 326 272 q 394 257 361 257 q 507 303 458 257 q 556 415 556 349 l 556 483 l 556 486 z "},"V":{"ha":936,"x_min":42,"x_max":900,"o":"m 157 713 q 42 967 100 833 q 243 967 143 960 q 297 849 269 900 q 157 713 226 774 m 643 850 q 694 967 669 901 q 900 967 797 960 q 783 713 842 833 q 643 850 714 775 m 478 65 l 474 65 l 467 65 l 461 65 l 179 674 l 318 808 l 469 476 l 621 810 l 763 674 l 478 65 z "},"W":{"ha":1150,"x_min":43,"x_max":1113,"o":"m 338 58 q 43 967 189 506 l 250 967 q 383 535 317 743 q 451 688 417 604 q 550 474 500 574 q 357 58 453 258 q 351 58 354 51 l 342 58 q 338 58 339 51 m 772 535 q 906 967 839 744 q 1113 967 1008 960 q 818 58 967 506 q 813 58 815 51 l 801 58 q 797 58 800 51 q 604 474 700 258 q 704 689 654 575 q 772 535 738 606 m 571 964 l 576 964 l 579 964 l 583 964 q 678 749 631 849 q 578 532 628 633 q 478 749 528 633 q 571 964 525 849 z "},"X":{"ha":864,"x_min":43,"x_max":833,"o":"m 301 528 q 43 967 171 740 l 265 967 q 418 718 342 836 q 301 528 360 617 m 574 475 l 815 65 l 592 65 l 457 286 l 574 475 m 608 964 q 611 967 610 958 q 832 967 722 960 q 767 854 800 904 q 443 319 608 581 q 282 58 363 182 q 60 58 171 51 q 394 617 322 501 l 608 964 z "},"Y":{"ha":846,"x_min":42,"x_max":813,"o":"m 325 447 q 42 967 182 700 q 260 967 151 960 q 263 964 261 958 q 269 953 265 951 q 269 951 269 946 q 526 447 399 693 q 526 58 526 246 l 325 58 q 325 447 325 246 m 440 689 q 592 967 517 821 q 813 967 703 960 q 547 482 681 718 q 440 689 494 579 z "},"Z":{"ha":714,"x_min":40,"x_max":671,"o":"m 40 967 l 422 967 l 336 789 l 40 789 l 40 967 m 474 967 l 671 967 l 374 353 l 238 72 l 40 72 l 338 686 l 474 967 m 375 251 l 671 251 l 671 72 l 289 72 l 375 251 z "},"[":{"ha":326,"x_min":35,"x_max":304,"o":"m 36 974 l 303 974 l 303 843 l 183 843 l 183 581 l 36 249 l 36 974 m 183 196 l 303 196 l 303 65 l 36 65 l 36 72 l 36 113 l 36 114 l 88 231 l 183 446 l 183 196 z "},"\\":{"ha":604,"x_min":33,"x_max":572,"o":"m 200 513 l 196 513 l 33 974 l 186 974 l 342 526 l 406 526 l 410 526 l 572 65 l 421 65 l 264 513 l 200 513 z "},"]":{"ha":336,"x_min":35,"x_max":304,"o":"m 303 65 l 36 65 l 36 196 l 156 196 l 156 458 l 303 790 l 303 65 m 156 843 l 36 843 l 36 974 l 303 974 l 303 967 l 303 926 l 303 925 l 251 808 l 156 593 l 156 843 z "},"^":{"ha":447,"x_min":28,"x_max":417,"o":"m 218 974 l 226 974 l 229 974 l 288 897 l 157 728 l 28 728 l 214 974 l 218 974 m 417 728 l 288 728 l 286 731 l 260 763 l 257 767 l 322 851 l 417 728 z "},"_":{"ha":889,"x_min":33,"x_max":856,"o":"m 35 208 l 414 208 l 350 65 l 35 65 l 35 208 m 475 208 l 854 208 l 854 65 l 411 65 l 475 208 z "},"a":{"ha":958,"x_min":40,"x_max":915,"o":"m 471 967 l 475 967 l 481 967 q 485 967 483 960 l 915 67 l 708 67 l 651 189 l 340 189 l 415 351 l 575 351 l 379 778 q 471 967 425 867 m 247 71 l 246 67 l 40 67 l 360 743 l 460 524 l 389 371 l 388 371 q 267 110 274 124 q 247 71 247 71 z "},"b":{"ha":728,"x_min":42,"x_max":699,"o":"m 53 646 q 53 967 53 800 l 304 967 q 508 894 429 967 q 583 726 583 822 q 551 615 583 661 q 519 579 533 590 q 632 515 579 569 q 697 344 697 449 q 666 213 697 275 q 568 108 635 151 q 406 67 500 67 l 53 67 l 53 569 l 247 401 l 247 256 l 389 256 q 471 283 435 256 q 507 354 507 311 q 478 425 507 397 q 389 453 449 453 l 238 453 l 42 625 l 313 625 q 369 647 344 625 q 394 702 394 669 q 371 756 394 735 q 317 778 347 778 l 246 778 q 246 646 246 706 l 53 646 z "},"c":{"ha":861,"x_min":42,"x_max":1131,"o":"m 706 686 q 503 776 611 776 q 447 772 476 776 q 326 931 386 844 q 335 935 331 925 q 504 967 418 967 q 814 832 678 964 q 819 828 817 822 q 711 681 765 747 q 706 686 708 676 m 394 760 q 278 663 324 728 q 232 520 232 597 q 278 378 232 443 q 394 282 324 313 l 403 278 l 285 121 l 279 125 q 106 291 171 185 q 42 520 42 397 q 106 749 42 643 q 279 915 171 856 l 285 919 l 403 764 l 394 760 m 447 264 q 503 257 478 257 q 706 347 611 257 l 711 353 l 819 206 l 814 201 q 504 67 678 69 q 335 99 418 67 l 326 103 l 447 264 m 1131 500 z "},"d":{"ha":835,"x_min":40,"x_max":807,"o":"m 44 967 l 325 967 q 329 967 326 960 q 681 846 553 967 q 807 513 807 724 q 681 181 807 301 q 325 60 551 60 q 40 60 181 53 q 299 253 168 150 l 301 253 l 326 253 q 522 311 449 253 q 608 474 596 369 q 610 513 610 486 q 534 706 610 636 q 325 775 458 775 l 304 775 q 301 775 303 768 q 44 967 172 864 m 54 926 l 249 781 l 249 264 l 54 118 l 54 926 z "},"e":{"ha":650,"x_min":39,"x_max":606,"o":"m 104 82 l 288 258 l 606 258 l 606 67 l 46 67 l 39 60 l 39 67 l 39 74 l 39 75 l 39 82 l 39 976 q 233 790 136 878 l 233 622 l 554 622 l 554 429 l 233 429 l 233 249 l 61 82 l 104 82 m 290 776 q 90 967 188 864 q 606 967 350 960 q 606 776 606 864 l 290 776 z "},"f":{"ha":758,"x_min":50,"x_max":726,"o":"m 50 82 l 110 82 l 222 79 l 222 82 q 50 82 222 82 m 292 776 q 94 967 192 864 l 725 967 q 529 776 628 864 l 292 776 m 222 82 l 222 443 l 360 443 l 535 608 l 222 608 l 222 788 l 57 950 l 57 83 l 110 82 l 111 82 q 222 82 171 82 z "},"g":{"ha":975,"x_min":43,"x_max":932,"o":"m 711 686 q 706 692 708 682 q 501 778 606 778 q 314 701 396 778 q 232 513 232 625 q 267 381 232 440 q 363 286 301 322 q 369 283 367 278 q 263 126 317 197 q 257 131 260 121 q 101 292 158 190 q 43 514 43 393 q 103 740 43 635 q 271 906 164 844 q 503 967 378 967 q 666 933 585 965 q 811 846 747 901 q 817 842 814 836 q 711 686 764 757 m 497 407 l 615 579 l 926 579 q 932 500 932 533 q 875 267 932 368 q 724 117 818 167 q 508 67 628 67 q 306 110 401 67 l 297 114 l 407 274 q 518 254 461 254 q 667 297 611 254 q 731 407 724 339 l 497 407 z "},"h":{"ha":796,"x_min":43,"x_max":749,"o":"m 43 600 q 43 967 43 776 l 236 967 q 236 600 236 776 q 140 532 189 560 q 43 600 92 560 m 556 967 l 749 967 q 749 600 749 776 q 651 532 700 560 q 556 600 603 560 q 556 967 556 776 m 301 615 l 303 617 l 489 617 l 490 615 l 517 597 l 626 521 l 515 444 l 489 426 l 486 425 l 306 425 l 303 426 l 276 444 l 165 521 l 275 597 l 301 615 m 54 479 l 43 471 l 43 571 l 54 563 l 106 526 l 114 521 l 106 515 l 54 479 m 738 563 l 749 571 l 749 471 l 738 479 l 686 515 l 678 521 l 686 526 l 738 563 m 140 503 l 236 435 l 236 65 l 43 65 l 43 435 l 140 503 m 651 503 l 749 435 l 749 65 l 556 65 l 556 435 l 651 503 z "},"i":{"ha":275,"x_min":42,"x_max":271,"o":"m 139 501 l 236 433 l 236 65 l 42 65 l 42 433 l 139 501 m 225 561 l 236 569 l 236 469 l 225 478 l 174 514 l 165 519 l 174 525 l 225 561 m 53 478 l 42 469 l 42 569 l 53 561 l 104 525 l 113 519 l 104 514 l 53 478 m 271 953 l 236 953 q 236 599 236 769 q 139 531 188 558 q 42 599 90 558 q 42 967 42 776 l 229 967 l 236 967 l 271 967 l 271 953 z "},"j":{"ha":663,"x_min":39,"x_max":622,"o":"m 431 699 q 429 967 429 826 l 619 967 q 619 832 619 893 q 431 699 525 758 m 518 168 q 254 65 411 65 l 247 65 q 44 126 133 65 l 39 131 l 136 297 l 143 292 q 249 254 188 254 l 253 254 q 378 305 325 254 q 431 424 431 356 q 431 667 431 424 l 431 671 l 619 803 l 622 422 q 518 168 622 272 z "},"k":{"ha":783,"x_min":42,"x_max":746,"o":"m 42 711 q 42 967 42 832 l 235 967 q 235 771 235 861 q 296 686 265 721 q 489 967 393 819 q 713 967 601 960 q 418 522 568 738 q 746 58 583 283 q 510 58 628 51 q 372 247 442 146 q 78 658 79 658 q 69 669 74 657 l 71 669 q 43 710 57 683 q 42 711 42 704 m 157 468 l 235 357 l 235 65 l 42 65 l 42 633 l 157 468 z "},"l":{"ha":653,"x_min":43,"x_max":610,"o":"m 43 46 q 43 967 43 499 l 236 967 q 236 288 236 621 q 43 46 139 160 m 94 65 l 249 258 l 610 258 l 610 65 l 94 65 z "},"m":{"ha":967,"x_min":42,"x_max":925,"o":"m 74 600 q 232 369 153 478 q 232 58 232 207 l 42 58 q 42 644 42 344 q 54 626 49 628 q 64 613 58 613 q 83 643 74 621 q 43 700 43 700 q 42 701 42 694 q 42 967 42 828 l 49 967 l 58 967 l 63 967 q 483 396 271 674 q 904 967 696 674 l 908 967 l 918 967 l 925 967 q 925 701 925 828 q 885 643 904 665 q 903 613 894 621 q 913 626 908 613 q 925 644 918 628 q 925 58 925 344 l 736 58 q 736 368 736 206 q 894 600 815 476 q 876 631 885 608 q 489 72 683 344 q 485 72 486 65 l 483 72 q 479 72 482 65 q 92 631 285 344 q 74 600 83 608 z "},"n":{"ha":828,"x_min":42,"x_max":786,"o":"m 42 981 l 49 981 l 57 981 q 60 981 58 974 q 532 535 293 750 q 600 468 561 507 q 603 468 601 461 q 786 288 694 371 q 786 43 786 158 l 779 43 l 771 43 q 768 43 769 36 q 42 740 406 385 q 42 981 42 853 m 594 519 q 593 522 594 514 q 593 967 593 738 l 786 967 q 786 332 786 643 q 611 503 699 411 q 594 519 603 504 m 42 703 l 236 513 l 236 65 l 42 65 l 42 703 z "},"o":{"ha":1017,"x_min":38,"x_max":974,"o":"m 269 911 q 506 972 378 972 q 819 856 686 972 q 825 850 822 846 q 685 718 756 778 q 681 722 682 714 q 504 783 604 783 q 310 705 390 783 q 229 515 229 626 q 286 354 229 426 q 290 350 289 344 q 151 217 219 276 q 146 222 149 213 q 38 515 38 350 q 99 744 38 639 q 269 911 161 850 m 864 817 q 974 522 974 689 q 912 294 974 399 q 742 128 850 189 q 504 67 632 67 q 190 185 324 67 l 199 194 l 192 194 l 326 321 l 331 317 q 504 257 407 257 q 701 335 619 257 q 782 522 782 413 q 724 686 782 613 l 719 690 l 858 822 l 864 817 z "},"p":{"ha":739,"x_min":42,"x_max":697,"o":"m 42 793 q 42 967 42 872 l 363 967 q 603 876 507 967 q 697 661 697 788 q 603 446 697 535 q 363 356 507 356 l 235 356 l 235 65 l 42 65 l 42 733 l 231 549 l 363 547 q 460 581 419 547 q 501 662 501 615 q 460 742 501 708 q 363 775 419 775 l 235 775 q 235 604 235 683 q 42 793 139 692 z "},"q":{"ha":1000,"x_min":42,"x_max":958,"o":"m 850 238 l 851 238 q 893 228 868 233 l 894 228 q 900 227 896 228 q 914 225 904 226 q 919 224 919 224 q 942 222 931 217 q 949 222 946 215 q 935 40 942 124 q 928 40 931 33 q 707 113 804 49 q 499 64 611 64 q 268 125 374 64 q 102 289 163 185 q 42 515 42 393 q 102 741 42 636 q 268 906 163 846 q 499 967 374 967 q 731 906 624 967 q 898 741 838 846 q 958 514 958 636 q 885 269 958 382 q 882 265 883 261 q 847 276 858 272 q 764 325 808 294 q 717 360 740 340 q 721 365 718 356 q 771 515 771 433 q 691 702 771 625 q 499 779 611 779 q 308 702 388 779 q 229 516 229 625 q 308 330 229 407 q 499 253 388 253 q 547 257 525 253 q 461 329 500 303 q 371 360 422 356 q 364 360 368 353 q 374 521 369 433 l 381 521 l 382 521 q 409 517 383 521 q 468 506 435 513 q 510 489 490 499 q 542 471 533 476 q 604 424 581 443 q 639 390 621 410 q 697 331 683 343 q 822 249 751 276 q 850 238 836 242 z "},"r":{"ha":794,"x_min":40,"x_max":761,"o":"m 233 775 q 106 967 169 864 l 340 967 q 572 881 475 967 q 665 669 665 793 q 619 514 665 582 q 500 418 572 444 q 761 58 632 231 q 519 58 642 51 q 236 465 378 254 q 236 58 236 254 l 42 58 q 40 975 42 510 q 235 686 138 824 q 235 564 235 618 l 343 564 q 347 564 346 564 q 424 594 390 564 q 458 669 458 625 q 424 744 458 713 q 343 775 389 775 l 233 775 z "},"s":{"ha":722,"x_min":38,"x_max":682,"o":"m 169 896 q 382 967 254 967 q 550 928 481 967 q 647 810 619 888 q 650 804 649 800 q 513 708 581 749 q 508 715 510 704 q 385 783 472 783 q 306 761 338 783 q 275 710 275 739 q 289 678 275 690 q 307 663 299 669 q 332 649 315 657 q 363 635 349 640 q 429 606 408 614 q 474 585 450 599 q 297 468 385 519 q 231 501 253 490 q 177 535 210 513 q 128 581 144 558 q 99 638 111 604 q 86 714 86 672 q 169 896 86 825 m 522 567 q 642 464 603 519 q 682 329 682 408 q 593 139 682 211 q 356 67 504 67 q 40 236 132 67 l 38 242 l 188 344 l 192 339 q 357 254 247 254 q 456 275 419 254 q 493 326 493 296 q 458 385 493 357 q 347 450 424 414 l 522 567 z "},"t":{"ha":733,"x_min":43,"x_max":690,"o":"m 43 775 q 43 967 43 864 q 376 967 210 960 q 181 775 279 864 l 43 775 m 250 775 q 461 967 349 864 l 690 967 q 690 775 690 864 l 471 775 q 471 58 471 410 l 263 58 q 263 775 263 410 q 250 775 256 768 z "},"u":{"ha":789,"x_min":43,"x_max":746,"o":"m 43 408 q 43 967 43 681 l 233 967 q 233 408 233 681 q 279 299 233 344 q 285 294 282 290 q 143 158 213 219 q 138 164 140 154 q 43 408 43 264 m 556 546 q 556 967 556 750 l 746 967 q 746 719 746 836 q 738 724 742 714 q 556 546 646 628 m 556 486 l 746 672 l 746 415 q 646 165 746 265 q 394 65 546 65 q 186 129 278 65 l 179 133 l 326 272 q 394 257 361 257 q 507 303 458 257 q 556 415 556 349 l 556 483 l 556 486 z "},"v":{"ha":936,"x_min":42,"x_max":900,"o":"m 157 713 q 42 967 100 833 q 243 967 143 960 q 297 849 269 900 q 157 713 226 774 m 643 850 q 694 967 669 901 q 900 967 797 960 q 783 713 842 833 q 643 850 714 775 m 478 65 l 474 65 l 467 65 l 461 65 l 179 674 l 318 808 l 469 476 l 621 810 l 763 674 l 478 65 z "},"w":{"ha":1150,"x_min":43,"x_max":1113,"o":"m 338 58 q 43 967 189 506 l 250 967 q 383 535 317 743 q 451 688 417 604 q 550 474 500 574 q 357 58 453 258 q 351 58 354 51 l 342 58 q 338 58 339 51 m 772 535 q 906 967 839 744 q 1113 967 1008 960 q 818 58 967 506 q 813 58 815 51 l 801 58 q 797 58 800 51 q 604 474 700 258 q 704 689 654 575 q 772 535 738 606 m 571 964 l 576 964 l 579 964 l 583 964 q 678 749 631 849 q 578 532 628 633 q 478 749 528 633 q 571 964 525 849 z "},"x":{"ha":864,"x_min":43,"x_max":833,"o":"m 301 528 q 43 967 171 740 l 265 967 q 418 718 342 836 q 301 528 360 617 m 574 475 l 815 65 l 592 65 l 457 286 l 574 475 m 608 964 q 611 967 610 958 q 832 967 722 960 q 767 854 800 904 q 443 319 608 581 q 282 58 363 182 q 60 58 171 51 q 394 617 322 501 l 608 964 z "},"y":{"ha":846,"x_min":42,"x_max":813,"o":"m 325 447 q 42 967 182 700 q 260 967 151 960 q 263 964 261 958 q 269 953 265 951 q 269 951 269 946 q 526 447 399 693 q 526 58 526 246 l 325 58 q 325 447 325 246 m 440 689 q 592 967 517 821 q 813 967 703 960 q 547 482 681 718 q 440 689 494 579 z "},"z":{"ha":714,"x_min":40,"x_max":671,"o":"m 40 967 l 447 969 l 361 792 l 40 789 l 40 967 m 474 967 l 671 967 l 374 353 l 238 72 l 40 72 l 338 686 l 474 967 m 353 251 l 671 251 l 671 72 l 267 72 l 353 251 z "},"{":{"ha":444,"x_min":35,"x_max":410,"o":"m 282 974 l 410 974 l 410 843 l 325 840 q 300 816 311 840 q 289 757 289 792 l 289 717 q 282 646 289 681 l 278 625 l 269 644 q 226 742 249 692 q 160 892 160 892 l 158 894 q 211 953 178 932 q 282 974 244 974 m 289 331 l 289 282 q 300 221 289 246 q 325 196 311 196 l 410 196 l 410 65 l 282 65 q 183 109 224 65 q 142 215 142 153 l 142 314 q 112 426 142 381 q 42 472 82 472 l 35 472 l 35 575 l 42 575 q 112 621 82 575 q 142 732 142 667 l 142 765 l 142 797 q 201 664 186 697 l 247 560 q 210 524 228 533 q 258 469 238 510 q 289 331 289 411 z "},"|":{"ha":161,"x_min":36,"x_max":125,"o":"m 36 972 l 125 972 l 125 511 l 36 313 l 36 972 m 125 376 l 125 67 l 36 67 l 36 178 l 125 376 z "},"}":{"ha":444,"x_min":35,"x_max":410,"o":"m 163 65 l 35 65 l 35 196 l 119 197 q 144 223 133 199 q 156 282 156 247 l 156 322 q 163 393 156 358 l 167 414 l 175 394 q 218 297 196 347 l 285 147 l 286 144 q 233 86 267 107 q 163 65 200 65 m 156 708 l 156 757 q 144 818 156 793 q 119 843 133 843 l 35 843 l 35 974 l 163 974 q 262 930 221 974 q 303 824 303 886 l 303 724 q 333 613 303 658 q 403 567 363 567 l 410 567 l 410 464 l 403 464 q 333 418 363 464 q 303 307 303 372 l 303 274 l 303 242 q 243 375 258 342 l 197 479 q 235 515 217 506 q 186 568 207 528 q 156 708 156 626 z "},"¦":{"ha":1389,"x_min":650,"x_max":739,"o":"m 650 972 l 739 972 l 739 511 l 650 313 l 650 972 m 739 376 l 739 67 l 650 67 l 650 178 l 739 376 z "}}}
